Coordinates
version=1
nRows=8
nColumns=40
inDegrees=yes

Units are S.I. units (second, meters, Newtons, ...)
If the header above contains a line with 'inDegrees', this indicates whether rotational values are in degrees (yes) or radians (no).

endheader
time	pelvis_tilt	pelvis_list	pelvis_rotation	pelvis_tx	pelvis_ty	pelvis_tz	hip_flexion_r	hip_adduction_r	hip_rotation_r	knee_angle_r	knee_angle_r_beta	ankle_angle_r	subtalar_angle_r	mtp_angle_r	hip_flexion_l	hip_adduction_l	hip_rotation_l	knee_angle_l	knee_angle_l_beta	ankle_angle_l	subtalar_angle_l	mtp_angle_l	lumbar_extension	lumbar_bending	lumbar_rotation	arm_flex_r	arm_add_r	arm_rot_r	elbow_flex_r	pro_sup_r	wrist_flex_r	wrist_dev_r	arm_flex_l	arm_add_l	arm_rot_l	elbow_flex_l	pro_sup_l	wrist_flex_l	wrist_dev_l
      3.77500000	      3.61594558	     -4.97716610	      4.82926096	     -0.31641230	      0.95457611	     -1.07298864	     36.24037685	      1.77874524	     -6.80731935	      1.54156478	      0.02690538	     -9.16107935	      0.00000000	      0.00000000	     27.87416521	     -1.28253736	     -0.49217391	     59.49438369	      1.03837288	     16.99158642	      0.00000000	      0.00000000	    -17.81636748	      2.63447522	      2.90865823	     89.91760906	     -3.45593195	     17.99635479	     36.41236536	     83.88004002	      0.00000000	      0.00000000	     89.94859334	     -1.47543163	     26.92052203	     44.43577941	     79.84667918	      0.00000000	      0.00000000
      3.78000000	      3.85878595	     -5.02784661	      4.71906050	     -0.31570208	      0.95696150	     -1.07306530	     35.81498329	      1.92468846	     -6.68299165	      1.51375973	      0.02642009	     -9.14629260	      0.00000000	      0.00000000	     27.29321374	     -1.35112204	     -0.51266901	     58.97571898	      1.02932047	     16.82206940	      0.00000000	      0.00000000	    -17.95911995	      2.70188003	      3.10230451	     89.91673348	     -3.54690390	     18.19913342	     36.27901217	     83.95764399	      0.00000000	      0.00000000	     89.94852467	     -1.42246205	     27.26825791	     44.25867149	     79.93256528	      0.00000000	      0.00000000
      3.78500000	      3.78637316	     -5.13006552	      4.58767368	     -0.31518128	      0.95879657	     -1.07305388	     35.75503817	      2.09496498	     -6.65813671	      1.47783238	      0.02579304	     -9.11439965	      0.00000000	      0.00000000	     27.11838792	     -1.41478364	     -0.40510243	     58.54397585	      1.02178514	     16.68607786	      0.00000000	      0.00000000	    -17.78916193	      2.82876520	      3.25769547	     89.91505976	     -3.56665708	     18.25197023	     36.19619851	     83.97798236	      0.00000000	      0.00000000	     89.94769696	     -1.46793134	     27.30246635	     44.24951099	     79.95349256	      0.00000000	      0.00000000
      3.79000000	      3.80407332	     -5.23615566	      4.43868561	     -0.31471840	      0.96067878	     -1.07305197	     35.63435337	      2.27202695	     -6.56721595	      1.51530885	      0.02644713	     -9.12637568	      0.00000000	      0.00000000	     26.83360764	     -1.50272813	     -0.33624073	     58.08545855	      1.01378250	     16.52096495	      0.00000000	      0.00000000	    -17.70873091	      2.96503678	      3.43692239	     89.91401847	     -3.56249041	     18.34799854	     36.04699610	     84.00283022	      0.00000000	      0.00000000	     89.94711485	     -1.48607555	     27.43446043	     44.14300208	     79.98178046	      0.00000000	      0.00000000
      3.79500000	      3.84077917	     -5.32486259	      4.27406712	     -0.31415752	      0.96271600	     -1.07306265	     35.45769408	      2.46111691	     -6.51453800	      1.48976392	      0.02600129	     -9.13831127	      0.00000000	      0.00000000	     26.50109688	     -1.58310506	     -0.29317246	     57.58224827	      1.00499982	     16.34590981	      0.00000000	      0.00000000	    -17.64233987	      3.07591077	      3.61071385	     89.91246063	     -3.55173570	     18.48602786	     35.92151371	     84.03536733	      0.00000000	      0.00000000	     89.94656610	     -1.52340304	     27.57851442	     44.05041493	     80.01224424	      0.00000000	      0.00000000
      3.80000000	      4.10814964	     -5.30750433	      4.13763561	     -0.31341658	      0.96515211	     -1.07307225	     34.97428121	      2.56943887	     -6.38547711	      1.40290884	      0.02448538	     -9.21689634	      0.00000000	      0.00000000	     25.87009719	     -1.64836459	     -0.45809780	     57.04505904	      0.99562410	     16.11634694	      0.00000000	      0.00000000	    -17.81713390	      3.06083194	      3.75643702	     89.91158531	     -3.64350621	     18.79050323	     35.78197687	     84.13480218	      0.00000000	      0.00000000	     89.94650359	     -1.59601051	     27.96930069	     43.95378412	     80.13731726	      0.00000000	      0.00000000
      3.80500000	      4.07847247	     -5.40631630	      3.96030919	     -0.31291408	      0.96694825	     -1.07293765	     34.89011368	      2.76457413	     -6.33262260	      1.41038734	      0.02461590	     -9.21115155	      0.00000000	      0.00000000	     25.66204775	     -1.75301676	     -0.41905328	     56.61615573	      0.98813833	     15.95886594	      0.00000000	      0.00000000	    -17.69169616	      3.16559906	      3.94350615	     89.90961625	     -3.64744870	     18.85693146	     35.69095912	     84.15842954	      0.00000000	      0.00000000	     89.94582094	     -1.65909516	     28.00695280	     43.91525575	     80.16430976	      0.00000000	      0.00000000
      3.81000000	      4.06842268	     -5.51602795	      3.82018339	     -0.31228968	      0.96880914	     -1.07286596	     34.76437139	      2.95149735	     -6.28984306	      1.40429760	      0.02450962	     -9.19136316	      0.00000000	      0.00000000	     25.39391229	     -1.88921086	     -0.43757016	     56.16102261	      0.98019476	     15.80632265	      0.00000000	      0.00000000	    -17.58471602	      3.29368897	      4.05139638	     89.90782393	     -3.61293338	     18.94829590	     35.60018369	     84.17910206	      0.00000000	      0.00000000	     89.94512760	     -1.72773943	     28.09919482	     43.81510597	     80.19010569	      0.00000000	      0.00000000
